<?xml version="1.0" encoding="iso-8859-1"?>
<!-- Generator: Adobe Illustrator 19.1.1, SVG Export Plug-In . SVG Version: 6.00 Build 0)  -->
<svg version="1.1" id="Layer_1" xmlns="http://www.w3.org/2000/svg" xmlns:xlink="http://www.w3.org/1999/xlink" x="0px" y="0px"
	 viewBox="0 0 48 48" style="enable-background:new 0 0 48 48;" xml:space="preserve">
<rect x="16" y="15" style="fill:#BF360C;" width="16" height="18"/>
<path style="fill:#FF9800;" d="M24,37c-2.193,0-5-6-5-6v-6h10v6C29,31,26.192,37,24,37"/>
<path style="fill:#FFB74D;" d="M33,14c0-7.635-18-4.971-18,0v7c0,4.971,4.028,9,9,9c4.971,0,9-4.029,9-9V14z"/>
<path style="fill:#FF5722;" d="M24,4C17.925,4,9,7.404,9,27.286L16,32V19l12-7l4,5v15l7-6c0-4.025-0.674-20-11-20l-1-2H24z"/>
<path style="fill:#784719;" d="M27,21c0,0.551,0.448,1,1,1s1-0.449,1-1s-0.448-1-1-1S27,20.449,27,21"/>
<path style="fill:#784719;" d="M19,21c0,0.551,0.448,1,1,1s1-0.449,1-1s-0.448-1-1-1S19,20.449,19,21"/>
<rect x="16" y="15" style="fill:#BF360C;" width="16" height="18"/>
<path style="fill:#FF9800;" d="M24,37c-2.193,0-5-6-5-6v-6h10v6C29,31,26.192,37,24,37"/>
<path style="fill:#FFB74D;" d="M33,14c0-7.635-18-4.971-18,0v7c0,4.971,4.028,9,9,9c4.971,0,9-4.029,9-9V14z"/>
<path style="fill:#FF5722;" d="M24,4C17.925,4,9,7.404,9,27.286L16,32V19l12-7l4,5v15l7-6c0-4.025-0.674-20-11-20l-1-2H24z"/>
<path style="fill:#784719;" d="M27,21c0,0.551,0.448,1,1,1s1-0.449,1-1s-0.448-1-1-1S27,20.449,27,21"/>
<path style="fill:#784719;" d="M19,21c0,0.551,0.448,1,1,1s1-0.449,1-1s-0.448-1-1-1S19,20.449,19,21"/>
<polygon style="fill:#BF360C;" points="32,32 16,32 14,15 34,15 "/>
<path style="fill:#FF9800;" d="M24,37c-2.193,0-5-6-5-6v-6h10v6C29,31,26.192,37,24,37"/>
<path style="fill:#FFB74D;" d="M33,14c0-7.635-18-4.971-18,0v7c0,4.971,4.028,9,9,9c4.971,0,9-4.029,9-9V14z"/>
<path style="fill:#FF5722;" d="M24,4C17.925,4,9,7.404,9,27.286L16,32V19l12-7l4,5v15l7-6c0-4.025-0.674-20-11-20l-1-2H24z"/>
<path style="fill:#784719;" d="M27,21c0-0.551,0.448-1,1-1s1,0.449,1,1s-0.448,1-1,1S27,21.551,27,21 M19,21c0,0.551,0.448,1,1,1
	s1-0.449,1-1s-0.448-1-1-1S19,20.449,19,21"/>
<path style="fill:#CFD8DC;" d="M29,31L29,31l-5,2l-5-2c0,0-11,1.986-11,13h32C40,33.025,29,31,29,31"/>
<polygon style="fill:#3F51B5;" points="23,36 22,44 26,44 25,36 26,35 24,33 22,35 "/>
<rect x="29" y="38" style="fill:#FFFFFF;" width="7" height="4"/>
</svg>
